<mxfile host="app.diagrams.net" modified="2022-09-12T03:20:38.329Z" agent="5.0 (Windows NT 10.0; Win64; x64) AppleWebKit/537.36 (KHTML, like Gecko) Chrome/104.0.5112.102 Safari/537.36 OPR/90.0.4480.84" etag="IG9JOw6ntmwvsM_n3shB" version="20.2.8" type="github">
  <diagram id="fNAa9VaY1_Iw8Ts7bcfw" name="Página-1">
    <mxGraphModel dx="828" dy="483" grid="1" gridSize="10" guides="1" tooltips="1" connect="1" arrows="1" fold="1" page="1" pageScale="1" pageWidth="827" pageHeight="1169" math="0" shadow="0">
      <root>
        <mxCell id="0" />
        <mxCell id="1" parent="0" />
        <mxCell id="_s43ssbsvwN2yPyqeatB-1" value="Gerencia General" style="rounded=0;whiteSpace=wrap;html=1;" vertex="1" parent="1">
          <mxGeometry x="380" y="40" width="120" height="40" as="geometry" />
        </mxCell>
        <mxCell id="_s43ssbsvwN2yPyqeatB-4" value="Servicios de Personal" style="rounded=0;whiteSpace=wrap;html=1;" vertex="1" parent="1">
          <mxGeometry x="130" y="80" width="100" height="40" as="geometry" />
        </mxCell>
        <mxCell id="_s43ssbsvwN2yPyqeatB-5" value="Administración y Finanzas" style="rounded=0;whiteSpace=wrap;html=1;" vertex="1" parent="1">
          <mxGeometry x="250" y="120" width="140" height="40" as="geometry" />
        </mxCell>
        <mxCell id="_s43ssbsvwN2yPyqeatB-6" value="Control Financiero" style="rounded=0;whiteSpace=wrap;html=1;" vertex="1" parent="1">
          <mxGeometry x="130" y="160" width="100" height="40" as="geometry" />
        </mxCell>
        <mxCell id="_s43ssbsvwN2yPyqeatB-7" value="Desarrollo de Software" style="rounded=0;whiteSpace=wrap;html=1;" vertex="1" parent="1">
          <mxGeometry x="180" y="280" width="100" height="40" as="geometry" />
        </mxCell>
      </root>
    </mxGraphModel>
  </diagram>
</mxfile>
